<svg width="24" height="24" viewBox="0 0 24 24" fill="none" xmlns="http://www.w3.org/2000/svg">
<path fill-rule="evenodd" clip-rule="evenodd" d="M11.902 1.55151C6.02116 1.55151 1.26709 6.34057 1.26709 12.2653C1.26709 17.0012 4.31319 21.0101 8.53893 22.4289C9.06725 22.5356 9.26078 22.1984 9.26078 21.9148C9.26078 21.6664 9.24336 20.815 9.24336 19.928C6.28499 20.5667 5.66894 18.6508 5.66894 18.6508C5.19351 17.4092 4.48908 17.09 4.48908 17.09C3.5208 16.4337 4.55961 16.4337 4.55961 16.4337C5.63368 16.5047 6.19727 17.5335 6.19727 17.5335C7.14791 19.1652 8.67977 18.7042 9.29604 18.4203C9.38399 17.7285 9.66589 17.2496 9.96521 16.9836C7.6057 16.7352 5.1232 15.8129 5.1232 11.6976C5.1232 10.5269 5.54551 9.56904 6.21468 8.82412C6.1091 8.55811 5.73925 7.45816 6.32048 5.98596C6.32048 5.98596 7.21844 5.7021 9.24315 7.0857C10.11 6.85118 11.004 6.73188 11.902 6.73087C12.7999 6.73087 13.7153 6.85517 14.5606 7.0857C16.5855 5.7021 17.4835 5.98596 17.4835 5.98596C18.0647 7.45816 17.6946 8.55811 17.5891 8.82412C18.2759 9.56904 18.6808 10.5269 18.6808 11.6976C18.6808 15.8129 16.1982 16.7174 13.8211 16.9836C14.2086 17.3206 14.543 17.959 14.543 18.9702C14.543 20.4069 14.5255 21.56 14.5255 21.9146C14.5255 22.1984 14.7193 22.5356 15.2474 22.4292C19.4731 21.0099 22.5192 17.0012 22.5192 12.2653C22.5366 6.34057 17.7652 1.55151 11.902 1.55151Z" fill="white"/>
</svg>
