<svg width="24" height="24" viewBox="0 0 24 24" fill="none" xmlns="http://www.w3.org/2000/svg">
<path d="M19.1974 19.383H16.0585V14.4674C16.0585 13.2953 16.0376 11.7863 14.426 11.7863C12.7912 11.7863 12.5411 13.0635 12.5411 14.3821V19.3826H9.40225V9.2743H12.4155V10.6557H12.4577C12.7593 10.1401 13.195 9.71595 13.7186 9.42841C14.2421 9.14087 14.8339 9.00071 15.4308 9.02287C18.6121 9.02287 19.1987 11.1154 19.1987 13.8377L19.1974 19.383ZM5.86061 7.89256C5.50035 7.89263 5.14816 7.78586 4.84858 7.58577C4.549 7.38567 4.31548 7.10123 4.17756 6.76842C4.03963 6.43561 4.0035 6.06937 4.07372 5.71602C4.14394 5.36267 4.31736 5.03808 4.57205 4.78329C4.82675 4.52851 5.15128 4.35497 5.5046 4.28462C5.85792 4.21427 6.22418 4.25028 6.55704 4.38809C6.8899 4.52589 7.17442 4.75931 7.37462 5.05882C7.57482 5.35832 7.68171 5.71047 7.68178 6.07073C7.68182 6.30994 7.63475 6.54681 7.54326 6.76782C7.45176 6.98883 7.31762 7.18965 7.14851 7.35883C6.9794 7.528 6.77862 7.66221 6.55764 7.75378C6.33666 7.84536 6.09981 7.89252 5.86061 7.89256ZM7.43002 19.383H4.28792V9.2743H7.43002V19.383ZM20.7622 1.33469H2.71066C2.30094 1.33007 1.90615 1.4883 1.61303 1.77461C1.31992 2.06092 1.15246 2.45189 1.14746 2.86161V20.988C1.15229 21.3979 1.31964 21.7892 1.61275 22.0758C1.90585 22.3624 2.30074 22.5209 2.71066 22.5166H20.7622C21.1729 22.5217 21.5689 22.3636 21.8632 22.077C22.1574 21.7904 22.3259 21.3988 22.3316 20.988V2.8603C22.3257 2.44977 22.1572 2.05836 21.8629 1.77205C21.5686 1.48575 21.1727 1.32797 20.7622 1.33339" fill="white"/>
</svg>
