<svg width="111" height="111" viewBox="0 0 111 111" fill="none" xmlns="http://www.w3.org/2000/svg">
<path d="M81.0438 80.0036C84.0635 78.7283 87.6641 78.2644 92.3097 78.3801C92.1791 77.5124 90.52 76.4822 89.3039 75.727C88.8951 75.4732 88.5364 75.2504 88.3026 75.0754C86.4441 73.7424 84.4697 72.3502 82.4954 71.1332C81.8594 70.7452 80.9435 70.4214 80.0622 70.1098C79.4954 69.9094 78.9429 69.7141 78.4883 69.51C78.0239 69.3211 77.3914 69.1322 76.7085 68.9282C75.0856 68.4434 73.1781 67.8736 72.5649 67.017C70.9865 64.9686 69.885 62.4918 68.785 60.0184C68.6707 59.7614 68.5564 59.5044 68.4416 59.248C67.8651 57.9317 67.2234 56.5895 66.5782 55.2397C65.8593 53.7358 65.1359 52.2225 64.4929 50.7251C64.2126 50.1148 63.9994 49.5377 63.7895 48.9695C63.5211 48.2429 63.2582 47.531 62.8671 46.7829C58.6273 38.6083 52.3561 31.767 44.7484 26.9551C42.251 25.3895 39.4639 23.9399 36.3857 22.9546C35.4457 22.6732 34.4044 22.6279 33.3529 22.5822C32.4554 22.5432 31.5505 22.5038 30.6947 22.3171H29.475C28.7709 22.1218 28.1458 21.558 27.5643 21.0336C27.2826 20.7796 27.0112 20.5349 26.746 20.3456C24.9455 19.1283 23.1454 18.3159 20.9965 17.4468C20.2421 17.0989 18.0932 16.2872 17.3382 16.9253C16.8732 17.0413 16.6412 17.2149 16.5251 17.6788C16.0604 18.3746 16.4673 19.4182 16.7574 20.0557C17.3331 21.2818 18.0611 22.1789 18.8071 23.0981C19.1898 23.5698 19.5773 24.0473 19.9514 24.5781C20.1298 24.8294 20.3157 25.0865 20.5048 25.3478C21.3624 26.5331 22.2839 27.8069 22.855 29.0421C23.6605 30.7743 24.2346 32.6055 24.8066 34.4301C25.3068 36.0254 25.8053 37.6156 26.4556 39.1302C26.9779 40.3482 27.7914 41.7391 28.5461 42.8408C28.7828 43.163 29.0914 43.4535 29.4038 43.7476C29.9342 44.2468 30.4757 44.7564 30.695 45.4497C31.2597 46.3893 30.2229 49.0797 29.5929 50.7145C29.4453 51.0973 29.3201 51.4222 29.243 51.6532C27.7326 56.4071 28.023 63.0165 29.7654 67.1327C29.8279 67.2781 29.8899 67.4259 29.9523 67.5748C30.5869 69.0873 31.268 70.7106 32.9594 71.1335C33.012 71.0807 33.017 71.0638 33.0284 71.0557C33.0421 71.0459 33.065 71.049 33.192 71.0169C33.277 70.3504 33.3493 69.689 33.4206 69.0368C33.6904 66.5692 33.9456 64.2346 34.8179 62.2628C35.2334 61.2447 35.9191 60.4228 36.5874 59.6217C36.9466 59.191 37.3008 58.7664 37.6054 58.3206C37.9737 58.5411 38.1083 59.0417 38.2466 59.5561C38.3263 59.8523 38.4072 60.1531 38.5346 60.4076C38.5879 60.5345 38.6415 60.6623 38.6954 60.7908C39.4048 62.4823 40.1684 64.3031 41.0317 65.973C42.948 69.6836 45.0972 73.2779 47.5359 76.5249C48.3486 77.6846 49.5106 78.9602 50.5556 80.0033C50.7148 80.1425 50.8808 80.2612 51.0444 80.3782C51.3578 80.6024 51.6621 80.82 51.8911 81.1629H52.0076V81.3372C50.9049 80.9335 50.0582 80.0654 49.2318 79.218C48.7523 78.7264 48.2797 78.2418 47.7679 77.8589C45.1546 75.8875 42.019 72.9303 40.2186 70.0898C39.6502 68.8678 39.049 67.6782 38.4396 66.4724C38.2396 66.0765 38.0386 65.679 37.8377 65.2779V65.1616C37.616 65.457 37.5826 65.7522 37.5424 66.1075C37.5195 66.3101 37.4943 66.5322 37.4308 66.7851C37.2158 67.6115 37.1092 68.4708 37.0062 69.3013C36.748 71.3843 36.5122 73.2861 34.6437 74.032C31.682 75.25 29.475 72.0602 28.5461 70.6113C25.5847 65.7994 24.7713 57.6828 26.8618 51.1313C27.0236 50.6271 27.1361 50.0877 27.2484 49.5498C27.4587 48.5418 27.668 47.5391 28.1979 46.7829C28.0814 46.0862 27.6802 45.7253 27.2882 45.3726C27.0931 45.1971 26.9003 45.0237 26.746 44.8118C25.9328 43.7102 25.2362 42.4349 24.5974 41.2176C23.6692 39.4088 22.9433 37.3314 22.2397 35.318C22.0185 34.6851 21.7996 34.0584 21.5773 33.4485C21.379 32.9397 21.2499 32.4308 21.1225 31.9285C20.9886 31.4008 20.8566 30.8805 20.6483 30.3757C20.0989 29.1873 19.189 27.9991 18.3444 26.8961C18.1176 26.5999 17.8955 26.3099 17.6863 26.0277C17.4599 25.7032 17.1601 25.3271 16.8259 24.9079C15.1886 22.8542 12.7257 19.7648 14.028 16.6354C16.467 10.6638 25.0043 15.1855 28.3138 17.2729C28.6446 17.4852 28.9948 17.7936 29.3563 18.1119C29.8832 18.5759 30.4343 19.0612 30.9854 19.302C31.7113 19.3311 32.4374 19.3746 33.1635 19.4181C33.8893 19.4616 34.6151 19.5051 35.3406 19.5342C35.5785 19.5898 35.815 19.6444 36.0501 19.6988C38.5123 20.2679 40.8124 20.7996 42.7741 21.9109C52.7623 27.7668 59.2665 33.7384 65.248 43.5945C66.0602 44.921 66.6142 46.318 67.1785 47.7407C67.5019 48.5561 67.8287 49.38 68.2093 50.2039C69.6613 53.5663 71.2878 57.1026 72.9715 60.2917C73.1829 60.7141 73.3807 61.1501 73.5789 61.587C74.0881 62.7095 74.5999 63.8377 75.3527 64.7557C75.6231 65.1417 76.2285 65.3477 76.8084 65.545C77.0996 65.6441 77.3844 65.741 77.6171 65.8574C78.3683 66.2437 79.182 66.5944 80.0023 66.9479C81.2745 67.4961 82.5623 68.0511 83.657 68.7562C87.0249 70.8433 90.2773 73.3359 93.239 75.8875C93.8376 76.4222 94.3337 77.0762 94.8291 77.7294C95.2469 78.2803 95.6643 78.8306 96.1423 79.3081V79.8296C95.2133 80.1196 94.2841 80.4095 93.3552 80.6414C92.3442 80.9009 91.3908 81.0026 90.4448 81.1035C89.4888 81.2055 88.5404 81.3067 87.5479 81.5691C87.4213 81.6053 87.2915 81.6426 87.1592 81.6807C86.017 82.0096 84.6856 82.3929 83.5408 82.4969C83.5986 82.5548 83.657 82.6125 83.657 82.6125C84.2166 84.2033 86.5967 85.5708 88.5473 86.6915C89.2273 87.0822 89.8551 87.4429 90.3354 87.7727C92.6001 89.3959 94.6906 91.3673 96.3746 93.6279C96.6634 93.9163 96.9524 94.1903 97.2413 94.4643C97.5334 94.7412 97.8253 95.018 98.117 95.3095C98.3136 95.5901 98.4422 95.9114 98.5688 96.2275C98.7037 96.5645 98.8363 96.8955 99.0462 97.1649V97.3385C98.5379 97.1576 98.1886 96.7951 97.8422 96.4356C97.6342 96.2198 97.4273 96.0051 97.1877 95.8313C96.6401 95.4587 96.0927 95.054 95.5453 94.6493C94.8154 94.1096 94.0855 93.5699 93.3552 93.1064C92.2314 92.3978 91.0173 91.8396 89.7971 91.2786C88.6211 90.738 87.4396 90.1948 86.3279 89.5118C85.0509 88.7001 83.8309 87.7727 82.6116 86.8453C81.5081 86.0332 80.2894 84.4676 79.5918 83.3083C79.416 83.0327 79.3054 82.7354 79.1989 82.4492C79.059 82.0733 78.9263 81.7165 78.6625 81.4532C78.7494 80.6292 79.5511 80.4213 80.3142 80.2234C80.5714 80.1567 80.8242 80.0912 81.0438 80.0036Z" fill="url(#paint0_linear_24_282)"/>
<path d="M30.6939 28.2883C31.3909 28.1147 32.0875 27.9981 33.0745 27.9981C33.2586 28.182 33.4883 28.3385 33.7202 28.4965C34.0737 28.7373 34.4324 28.9817 34.6426 29.332C34.7716 29.5124 34.8548 29.6927 34.9379 29.873C35.0419 30.0985 35.1459 30.324 35.3396 30.5493C35.3396 31.9409 34.9333 32.8683 34.1199 33.4485C34.1199 33.4485 34.0618 33.5061 34.0041 33.5645C33.7719 33.1012 33.5544 32.6379 33.3369 32.1746C33.1188 31.7101 32.9007 31.2456 32.6679 30.7813C32.4418 30.4652 32.1805 30.1755 31.9183 29.8847C31.5073 29.429 31.0939 28.9706 30.8101 28.4043H30.6939V28.2883Z" fill="url(#paint1_linear_24_282)"/>
<defs>
<linearGradient id="paint0_linear_24_282" x1="13.7863" y1="13.7051" x2="39.283" y2="104.101" gradientUnits="userSpaceOnUse">
<stop stop-color="#E18AAC"/>
<stop offset="0.384442" stop-color="#D55D8D"/>
<stop offset="0.69032" stop-color="#A55072"/>
<stop offset="1" stop-color="#70334B"/>
</linearGradient>
<linearGradient id="paint1_linear_24_282" x1="13.7863" y1="13.7051" x2="39.283" y2="104.101" gradientUnits="userSpaceOnUse">
<stop stop-color="#E18AAC"/>
<stop offset="0.384442" stop-color="#D55D8D"/>
<stop offset="0.69032" stop-color="#A55072"/>
<stop offset="1" stop-color="#70334B"/>
</linearGradient>
</defs>
</svg>
