<svg width="111" height="111" viewBox="0 0 111 111" fill="none" xmlns="http://www.w3.org/2000/svg">
<path d="M60.2044 9.55882C57.8733 8.19543 54.8345 8.20156 52.5015 9.55882C49.6259 11.2092 46.7503 12.8598 43.8746 14.5103C35.0654 19.5666 26.256 24.623 17.4453 29.6766C15.1713 30.9208 13.6374 33.4606 13.6619 36.0968V76.6167C13.6455 79.3043 15.2584 81.8686 17.5911 83.0958C18.8575 83.7964 20.1104 84.524 21.3631 85.2515C23.4309 86.4523 25.4986 87.653 27.6267 88.7326C31.5744 90.7499 36.5133 91.1961 40.5091 89.0922C43.7527 87.3484 45.1933 83.4704 45.1893 79.9065C45.2058 71.4603 45.2031 63.0141 45.2004 54.5679C45.1988 49.6413 45.1972 44.7147 45.1994 39.7881C45.2765 39.1938 44.8475 38.5586 44.2242 38.5729C42.7309 38.5483 41.2357 38.5586 39.7424 38.5688C39.1781 38.5133 38.6275 39.0006 38.67 39.5905C38.6595 46.55 38.6611 53.5105 38.6627 60.4713C38.6642 66.7996 38.6656 73.1281 38.658 79.4562C38.6905 81.2944 37.4965 83.061 35.7931 83.6819C33.8628 84.4162 31.7118 83.8468 29.9598 82.8883C28.9073 82.2842 27.8546 81.6809 26.8019 81.0775C24.7441 79.898 22.6863 78.7185 20.6302 77.5336C20.4242 77.4343 20.2531 77.2732 20.1398 77.0721C20.0266 76.871 19.9767 76.6394 19.9969 76.4086C19.9969 71.9523 19.9971 67.496 19.9973 63.0398C19.9978 54.1275 19.9982 45.2155 19.9969 36.3045C19.9402 35.7657 20.2596 35.2804 20.7355 35.0603C27.2157 31.3508 33.694 27.6361 40.1725 23.9213C45.3372 20.9598 50.502 17.9983 55.668 15.0393C55.8702 14.8989 56.1094 14.824 56.3543 14.8243C56.5991 14.8247 56.8381 14.9003 57.0399 15.0413C62.1834 17.9866 67.326 20.9334 72.4687 23.8804C78.9706 27.6061 85.4726 31.3319 91.9764 35.0545C92.454 35.2742 92.7596 35.7677 92.711 36.3045C92.7103 41.1669 92.7106 46.0296 92.7109 50.8923C92.7115 59.3972 92.7121 67.9024 92.707 76.4065C92.7415 76.8796 92.5066 77.3381 92.0817 77.5458C86.0823 80.9937 80.0785 84.4341 74.0747 87.8746C68.6017 91.0109 63.1287 94.1473 57.6589 97.2893C57.5883 97.3292 57.5161 97.3723 57.4425 97.4163C56.9436 97.714 56.3787 98.0511 55.8198 97.7232C54.0976 96.7325 52.3874 95.7197 50.6773 94.707C49.4019 93.9517 48.1266 93.1965 46.8465 92.4505C46.5207 92.239 46.1059 92.1484 45.7661 92.3847C45.6847 92.4293 45.6033 92.474 45.5219 92.5187C44.2591 93.212 42.9902 93.9086 41.616 94.3527C41.4413 94.4246 41.2556 94.4827 41.069 94.5412C40.5619 94.6999 40.047 94.8611 39.7203 95.3087C40.1204 95.8671 40.7093 96.1999 41.2925 96.5294C41.4464 96.6164 41.5999 96.7031 41.7494 96.7937C43.3468 97.7338 44.9453 98.6723 46.5439 99.6107C48.4527 100.731 50.3615 101.852 52.2686 102.975C54.5755 104.473 57.6753 104.579 60.0566 103.195C65.5953 100.021 71.1332 96.8451 76.6711 93.6689C82.8183 90.1432 88.9657 86.6175 95.1148 83.0941C97.4415 81.8601 99.0624 79.306 99.046 76.6163V36.0968C99.0684 33.514 97.5933 31.0195 95.3879 29.757C88.5209 25.8102 81.6519 21.8685 74.7828 17.9267C69.9232 15.1381 65.0635 12.3493 60.2044 9.55882Z" fill="url(#paint0_linear_24_274)"/>
<path d="M77.8373 39.9814C73.2506 37.4294 67.7939 37.2935 62.6969 37.6269C59.0146 38.0053 55.1417 39.0622 52.4588 41.8073C49.7072 44.5671 49.1083 49.0234 50.4153 52.6262C51.3519 55.1718 53.7094 56.8274 56.1474 57.7031C59.288 58.8561 62.5864 59.2126 65.886 59.5692C68.8955 59.8945 71.9059 60.2199 74.7985 61.1499C75.9801 61.5572 77.3561 62.1802 77.718 63.517C78.0521 65.1004 77.6858 66.941 76.4496 68.0411C74.228 69.8698 71.2153 69.9999 68.4615 70.1187C68.3109 70.1253 68.161 70.1317 68.0121 70.1384C67.7211 70.1338 67.4278 70.1305 67.1328 70.1271C63.9141 70.0908 60.4944 70.0522 57.7218 68.2342C56.1534 67.1504 55.4775 65.2319 55.2027 63.4039C55.1722 62.8341 54.7312 62.3116 54.1364 62.3549C52.6471 62.3365 51.1579 62.3406 49.6686 62.3528C49.1489 62.3075 48.6087 62.6921 48.5802 63.2435C48.4609 66.5087 49.6626 69.8918 52.123 72.0631C55.0003 74.6441 58.8789 75.6393 62.606 76.0712C66.5698 76.4639 70.6203 76.4414 74.5233 75.5569C77.4573 74.8621 80.3989 73.5828 82.4186 71.2324C84.9092 68.3762 85.3988 64.1236 84.2819 60.5658C83.428 57.9112 80.9877 56.2082 78.4931 55.3322C75.1009 54.1225 71.5553 53.6453 68.0081 53.1679C65.2547 52.7973 62.5003 52.4266 59.8159 51.7131C59.7703 51.6985 59.7244 51.6839 59.678 51.6691C58.6397 51.3388 57.426 50.9526 56.9711 49.8541C56.4671 48.2561 56.896 46.2718 58.3082 45.2889C60.1476 43.9912 62.4824 43.8001 64.6536 43.683C64.7313 43.6822 64.8091 43.6814 64.887 43.6806C67.7926 43.6514 70.8614 43.6204 73.5177 44.9721C75.2944 45.8975 76.3239 47.7977 76.7488 49.7162C76.8276 50.2799 77.1922 50.8677 77.8195 50.8432C78.8314 50.8642 79.8434 50.8603 80.8554 50.8564C81.3224 50.8546 81.7894 50.8528 82.2564 50.8534C82.7645 50.8906 83.3207 50.5922 83.4199 50.0514C83.3573 46.0416 81.3885 41.9371 77.8373 39.9814Z" fill="url(#paint1_linear_24_274)"/>
<defs>
<linearGradient id="paint0_linear_24_274" x1="13.7863" y1="8.58827" x2="46.3535" y2="109.618" gradientUnits="userSpaceOnUse">
<stop stop-color="#E18AAC"/>
<stop offset="0.384442" stop-color="#D55D8D"/>
<stop offset="0.69032" stop-color="#A55072"/>
<stop offset="1" stop-color="#70334B"/>
</linearGradient>
<linearGradient id="paint1_linear_24_274" x1="13.7863" y1="8.58827" x2="46.3535" y2="109.618" gradientUnits="userSpaceOnUse">
<stop stop-color="#E18AAC"/>
<stop offset="0.384442" stop-color="#D55D8D"/>
<stop offset="0.69032" stop-color="#A55072"/>
<stop offset="1" stop-color="#70334B"/>
</linearGradient>
</defs>
</svg>
