<svg width="111" height="111" viewBox="0 0 111 111" fill="none" xmlns="http://www.w3.org/2000/svg">
<path d="M56.3539 13.6616C32.766 13.6616 13.6616 33.0573 13.6616 57.005C13.6616 77.3745 27.4285 94.2803 46.0024 99.0462C45.788 98.504 45.6827 97.7441 45.6827 96.9879V89.6177H40.3452C37.4639 89.6177 34.7934 88.3192 33.6198 85.9326C32.2319 83.332 32.0175 79.3222 28.4967 76.8286C27.4285 75.9617 28.2824 75.0949 29.456 75.2018C31.6978 75.8511 33.5108 77.3709 35.2185 79.6432C36.9262 81.9191 37.6747 82.4614 40.8757 82.4614C42.369 82.4614 44.7162 82.3544 46.8526 82.0261C48.0262 78.9902 50.0536 76.2827 52.5098 74.9842C38.2088 73.2505 31.378 66.0979 31.378 56.3447C31.378 52.1173 33.1911 48.1076 36.1814 44.6402C35.2221 41.2797 33.9396 34.3447 36.6101 31.6371C43.0158 31.6371 46.8563 35.8645 47.8155 36.9453C51.0165 35.8608 54.5409 35.2116 58.167 35.2116C61.9021 35.2116 65.3175 35.8608 68.5185 36.9453C69.4777 35.8608 73.3218 31.6371 79.7239 31.6371C82.2854 34.2377 81.1118 41.2797 80.0436 44.6402C83.0339 48.0006 84.7416 52.1173 84.7416 56.3447C84.7416 66.0979 78.0162 73.2505 63.8242 74.7666C67.7737 76.8249 70.5496 82.6754 70.5496 87.0097V96.8809C70.5496 97.2055 70.4442 97.5301 70.4442 97.8548C87.0924 92.0043 99.0462 75.9691 99.0462 57.005C99.0462 33.0573 79.9419 13.6616 56.3539 13.6616Z" fill="url(#paint0_linear_24_284)"/>
<defs>
<linearGradient id="paint0_linear_24_284" x1="13.7863" y1="13.706" x2="40.2539" y2="105.667" gradientUnits="userSpaceOnUse">
<stop stop-color="#E18AAC"/>
<stop offset="0.384442" stop-color="#D55D8D"/>
<stop offset="0.69032" stop-color="#A55072"/>
<stop offset="1" stop-color="#70334B"/>
</linearGradient>
</defs>
</svg>
