<svg width="111" height="111" viewBox="0 0 111 111" fill="none" xmlns="http://www.w3.org/2000/svg">
<path d="M55.9668 7.21077C55.927 7.04852 55.8858 6.9211 55.8428 6.83081C55.7138 8.8534 55.6496 9.61231 53.7176 11.6349C50.7558 13.9102 35.432 26.4883 34.209 52.0868C33.0082 75.9514 51.7867 90.2028 54.3352 92.0234C56.1446 96.1868 55.9714 103.284 55.9714 103.284L58.6108 104.169C58.6108 104.169 58.0959 97.2166 58.869 93.9296C59.0853 92.9063 59.6078 92.0128 60.2294 91.2653C60.6846 90.9516 61.8755 90.0941 63.4451 88.6845C63.5252 88.6418 63.5695 88.62 63.5695 88.62L63.5661 88.5754C69.8168 82.9185 81.7881 68.7116 77.7335 45.4494C73.6981 27.9882 65.4207 19.6109 61.2569 15.3967C60.0401 14.1653 59.1746 13.2893 58.8689 12.6461C57.3883 10.6235 55.9713 7.08447 55.9713 7.08447L55.9737 7.2392C55.9714 7.22961 55.9691 7.22013 55.9668 7.21077Z" fill="url(#paint0_linear_24_280)"/>
<defs>
<linearGradient id="paint0_linear_24_280" x1="34.2187" y1="6.88139" x2="85.45" y2="88.0753" gradientUnits="userSpaceOnUse">
<stop stop-color="#E18AAC"/>
<stop offset="0.384442" stop-color="#D55D8D"/>
<stop offset="0.69032" stop-color="#A55072"/>
<stop offset="1" stop-color="#70334B"/>
</linearGradient>
</defs>
</svg>
