<svg width="111" height="111" viewBox="0 0 111 111" fill="none" xmlns="http://www.w3.org/2000/svg">
<path fill-rule="evenodd" clip-rule="evenodd" d="M97.3385 13.6616H11.9539V99.0462H97.3385V13.6616ZM40.9386 81.0608L34.4047 85.0152C36.2961 89.0273 40.0217 92.3509 46.4405 92.3509C53.5481 92.3509 58.4197 88.568 58.4197 80.2573V52.8615H50.3959V80.1439C50.3959 84.1557 48.7333 85.187 46.0967 85.187C43.346 85.187 42.1993 83.2958 40.9386 81.0608ZM69.3113 80.3727L62.778 84.1553C65.1278 88.7981 69.942 92.3519 77.3928 92.3519C85.0157 92.3519 90.6898 88.3975 90.6898 81.1752C90.6898 74.4699 86.8498 71.4897 80.029 68.5663L78.0232 67.7068C74.5844 66.2166 73.0942 65.2416 73.0942 62.8345C73.0942 60.886 74.5844 59.3958 76.9345 59.3958C79.2272 59.3958 80.7168 60.37 82.0926 62.8345L88.3404 58.8221C85.7041 54.1797 82.0359 52.4026 76.9349 52.4026C69.7702 52.4026 65.1851 56.988 65.1851 63.0063C65.1851 69.5402 69.0251 72.6354 74.8143 75.0992L76.8198 75.9597C80.488 77.564 82.666 78.5386 82.666 81.2896C82.666 83.5823 80.546 85.2447 77.221 85.2447C73.2667 85.2447 71.0313 83.1814 69.3113 80.3727Z" fill="url(#paint0_linear_24_268)"/>
<defs>
<linearGradient id="paint0_linear_24_268" x1="12.0786" y1="13.706" x2="38.5461" y2="105.667" gradientUnits="userSpaceOnUse">
<stop stop-color="#E18AAC"/>
<stop offset="0.384442" stop-color="#D55D8D"/>
<stop offset="0.69032" stop-color="#A55072"/>
<stop offset="1" stop-color="#70334B"/>
</linearGradient>
</defs>
</svg>
