<svg width="111" height="111" viewBox="0 0 111 111" fill="none" xmlns="http://www.w3.org/2000/svg">
<path d="M84.2367 54.725V58.1041H87.6563V54.725H84.2367Z" fill="url(#paint0_linear_24_272)"/>
<path fill-rule="evenodd" clip-rule="evenodd" d="M99.0462 36.6238C99.0462 35.026 98.7043 33.5852 97.994 32.3802C97.3102 31.1752 96.2842 30.1798 94.9165 29.3939C89.2347 26.1326 83.5463 22.8712 77.8579 19.6099C72.1696 16.3486 66.4812 13.0872 60.7994 9.82589C57.7218 8.07077 54.7757 8.12319 51.7244 9.90446C49.3658 11.2837 42.0749 15.4606 34.681 19.6964C27.8915 23.5861 21.015 27.5255 17.7915 29.3939C15.0031 30.9918 13.6616 33.4542 13.6616 36.6501V76.048C13.6616 77.6198 14.0036 79.0081 14.6612 80.2132C15.3452 81.4444 16.3973 82.4922 17.7915 83.3042C20.4145 84.8187 25.4296 87.6898 30.8498 90.7929L30.8535 90.7951C39.4015 95.6888 48.9559 101.159 51.7244 102.794C54.7757 104.575 57.748 104.653 60.7994 102.872C67.8453 98.8117 74.9013 94.7713 81.9549 90.7323L81.9613 90.7286C86.2816 88.2547 90.6009 85.7814 94.9165 83.3042C96.3369 82.4922 97.3628 81.4705 98.0467 80.2132C98.7043 79.0081 99.0462 77.6198 99.0462 76.048V36.6238ZM68.6381 63.2123C66.2182 67.4822 61.6149 70.3899 56.3276 70.3899C51.0667 70.3899 46.4897 67.5346 44.0697 63.2909C42.886 61.2215 42.202 58.8639 42.202 56.3229C42.202 48.5428 48.5151 42.2559 56.3276 42.2559C61.5359 42.2559 66.0866 45.085 68.5329 49.2763L80.8697 42.2035C75.9509 33.7687 66.7968 28.0842 56.3013 28.0842C40.6237 28.0842 27.945 40.7366 27.945 56.3229C27.945 61.431 29.3128 66.2511 31.7065 70.3899C36.5992 78.851 45.8058 84.5616 56.3276 84.5616C66.8758 84.5616 76.0824 78.8249 80.975 70.3114L68.6381 63.2123ZM84.2367 49.6431H81.4221V51.922H79.1601V54.725H81.4221V58.1041H79.1601V60.907H81.4221V63.1862H84.2367V60.907H87.6563V63.1862H90.4709V60.907H92.7596V58.1041H90.4709V54.725H92.7596V51.922H90.4709V49.6431H87.6563V51.922H84.2367V49.6431Z" fill="url(#paint1_linear_24_272)"/>
<defs>
<linearGradient id="paint0_linear_24_272" x1="13.7863" y1="8.58827" x2="46.3535" y2="109.618" gradientUnits="userSpaceOnUse">
<stop stop-color="#E18AAC"/>
<stop offset="0.384442" stop-color="#D55D8D"/>
<stop offset="0.69032" stop-color="#A55072"/>
<stop offset="1" stop-color="#70334B"/>
</linearGradient>
<linearGradient id="paint1_linear_24_272" x1="13.7863" y1="8.58827" x2="46.3535" y2="109.618" gradientUnits="userSpaceOnUse">
<stop stop-color="#E18AAC"/>
<stop offset="0.384442" stop-color="#D55D8D"/>
<stop offset="0.69032" stop-color="#A55072"/>
<stop offset="1" stop-color="#70334B"/>
</linearGradient>
</defs>
</svg>
