<svg width="111" height="111" viewBox="0 0 111 111" fill="none" xmlns="http://www.w3.org/2000/svg">
<path d="M81.701 66.4941C81.2368 66.6467 80.7602 66.7942 80.2746 66.9371C79.1996 63.558 77.7488 59.9646 75.974 56.2526C77.668 52.6282 79.0624 49.0811 80.1073 45.7236C80.976 45.9737 81.8194 46.2369 82.632 46.5149C90.4913 49.2013 95.285 53.1739 95.285 56.2346C95.285 59.4951 90.1072 63.7278 81.701 66.4941Z" fill="url(#paint0_linear_24_270)"/>
<path d="M78.213 73.3579C79.0628 77.6213 79.1842 81.476 78.6212 84.4893C78.1153 87.1969 77.0982 89.002 75.8406 89.725C73.164 91.2636 67.44 89.2637 61.2676 83.9888C60.5599 83.3841 59.8469 82.7383 59.132 82.0553C61.5251 79.4559 63.9167 76.434 66.2508 73.0784C70.3567 72.7167 74.2356 72.1251 77.7533 71.3177C77.9262 72.012 78.0803 72.6924 78.213 73.3579Z" fill="url(#paint1_linear_24_270)"/>
<path d="M42.9383 89.4593C40.3234 90.3764 38.2408 90.4025 36.982 89.6817C34.3029 88.1476 33.1896 82.224 34.7084 74.2792C34.889 73.3402 35.0959 72.4065 35.3286 71.479C38.8072 72.243 42.6579 72.7928 46.7736 73.1243C49.1231 76.4079 51.5839 79.426 54.0638 82.0691C53.5368 82.5754 52.9973 83.0688 52.4458 83.5487C49.1506 86.4094 45.8482 88.4384 42.9383 89.4593Z" fill="url(#paint2_linear_24_270)"/>
<path d="M30.6878 66.4739C26.5466 65.0682 23.1266 63.2415 20.7824 61.2483C18.676 59.4566 17.6123 57.678 17.6123 56.2346C17.6123 53.1638 22.223 49.2465 29.9128 46.584C30.878 46.2513 31.8528 45.9467 32.8359 45.6706C33.8988 49.1035 35.2929 52.6928 36.9753 56.3224C35.2711 60.0061 33.8571 63.6524 32.7844 67.1256C32.0803 66.9255 31.3812 66.7082 30.6878 66.4739Z" fill="url(#paint3_linear_24_270)"/>
<path d="M34.7945 38.7146C33.1982 30.6137 34.2581 24.503 36.9256 22.9697C39.7672 21.3363 46.0497 23.6655 52.6716 29.5044C53.0949 29.8776 53.52 30.2684 53.9458 30.6727C51.4787 33.3038 49.0404 36.2992 46.7112 39.5637C42.7169 39.9314 38.8933 40.5219 35.3782 41.3128C35.1617 40.4516 34.9671 39.5855 34.7945 38.7146Z" fill="url(#paint4_linear_24_270)"/>
<path d="M71.4287 47.6978C70.5984 46.2736 69.7374 44.8673 68.8461 43.48C71.5561 43.8196 74.1522 44.2713 76.59 44.8241C75.8582 47.1536 74.946 49.5895 73.8718 52.0866C73.0869 50.6077 72.2724 49.1444 71.4287 47.6978Z" fill="url(#paint5_linear_24_270)"/>
<path d="M56.4893 33.2474C58.1626 35.0476 59.8386 37.058 61.4871 39.239C58.1431 39.0821 54.7935 39.0813 51.4493 39.2367C53.0994 37.0759 54.7896 35.0686 56.4893 33.2474Z" fill="url(#paint6_linear_24_270)"/>
<path d="M41.454 47.7224C40.6209 49.1576 39.8216 50.6118 39.0568 52.084C38.0002 49.5955 37.0963 47.1487 36.3581 44.786C38.7813 44.2474 41.3653 43.8073 44.0576 43.4732C43.1564 44.8692 42.2883 46.286 41.454 47.7224Z" fill="url(#paint7_linear_24_270)"/>
<path d="M44.1351 69.2532C41.3537 68.9449 38.7305 68.5272 36.3081 68.0035C37.0579 65.599 37.9818 63.0996 39.0609 60.5577C39.829 62.031 40.6318 63.4861 41.4687 64.9219C42.3227 66.3865 43.2117 67.8307 44.1351 69.2532Z" fill="url(#paint8_linear_24_270)"/>
<path d="M56.5896 79.4764C54.8701 77.6336 53.155 75.5956 51.4798 73.4035C53.1058 73.4669 54.7637 73.499 56.4487 73.499C58.1799 73.499 59.8912 73.4606 61.5754 73.3859C59.9217 75.618 58.2517 77.659 56.5896 79.4764Z" fill="url(#paint9_linear_24_270)"/>
<path d="M73.9064 60.4282C75.0415 62.9977 75.9984 65.4837 76.7584 67.8475C74.2958 68.4055 71.6373 68.8549 68.836 69.1886C69.7337 67.7754 70.603 66.3445 71.4433 64.8969C72.2976 63.4257 73.1189 61.9357 73.9064 60.4282Z" fill="url(#paint10_linear_24_270)"/>
<path fill-rule="evenodd" clip-rule="evenodd" d="M68.3004 63.097C67.0139 65.3164 65.655 67.4937 64.226 69.6253C61.7062 69.8041 59.1023 69.8963 56.4487 69.8963C53.806 69.8963 51.2351 69.8146 48.7593 69.6552C47.2932 67.5285 45.9087 65.3475 44.6086 63.1168C43.3147 60.898 42.106 58.6312 40.9853 56.3212C42.1032 54.0106 43.3082 51.7426 44.5977 49.5219C45.8869 47.3008 47.2605 45.1299 48.7157 43.0123C51.2415 42.8227 53.8312 42.7234 56.4491 42.7234C59.0786 42.7234 61.6717 42.8234 64.1967 43.0145C65.6371 45.1288 67.002 47.293 68.2887 49.5029C69.5827 51.7186 70.8038 53.9755 71.95 56.2701C70.8156 58.588 69.598 60.8651 68.3004 63.097ZM64.0326 56.2347C64.0326 52.0755 60.6374 48.7035 56.4488 48.7035C52.2606 48.7035 48.865 52.0755 48.865 56.2347C48.865 60.3944 52.2606 63.7664 56.4488 63.7664C60.6374 63.7664 64.0326 60.3944 64.0326 56.2347Z" fill="url(#paint11_linear_24_270)"/>
<path d="M75.7849 22.8626C78.6287 24.4915 79.7349 31.0597 77.948 39.6735C77.8309 40.2346 77.7036 40.7936 77.5661 41.3501C74.0428 40.5428 70.2165 39.9418 66.2106 39.5686C63.8769 36.2686 61.4589 33.2679 59.0316 30.6708C59.6677 30.0618 60.3189 29.4687 60.9846 28.8918C67.2547 23.4729 73.1148 21.3333 75.7849 22.8626Z" fill="url(#paint12_linear_24_270)"/>
<path fill-rule="evenodd" clip-rule="evenodd" d="M26.7089 73.8419C15.5909 70.0678 8.53857 63.3727 8.53857 56.2004C8.53857 49.2231 15.966 43.0251 26.7089 39.3055C24.4815 28.0006 26.2237 18.8912 32.3292 15.3814C38.6613 11.7414 47.3908 14.1918 56.4942 22.2184C65.2442 14.6561 74.0609 11.6059 80.172 15.1056C86.5109 18.7355 88.5921 27.465 86.1358 39.3843C97.1043 43.1341 104.169 49.1947 104.169 56.2004C104.169 63.4671 97.6917 69.1761 86.1114 72.9782C88.3929 84.4246 86.4921 93.9778 80.2415 97.5712C74.1601 101.067 65.445 98.1669 56.8215 90.7972C47.9748 98.4771 38.6542 100.957 32.398 97.3741C26.3112 93.8882 24.4887 84.9415 26.7089 73.8419ZM81.0792 42.2523C81.9977 42.5146 82.9093 42.7999 83.8132 43.1078C92.9858 46.2436 98.9132 51.1557 98.9132 56.2346C98.9132 61.5316 92.5788 66.7105 82.8424 69.9139C82.3278 70.0833 81.8005 70.2461 81.263 70.4036C81.4547 71.1695 81.6257 71.9216 81.7723 72.6581C83.6945 82.2997 82.2143 90.2244 77.6589 92.8432C73.2481 95.3788 66.1195 92.888 58.9014 86.7199C58.1168 86.0478 57.3512 85.3541 56.6056 84.6397C56.0136 85.2082 55.4224 85.7505 54.8334 86.2619C47.3815 92.7305 39.7289 95.4142 35.1693 92.8033C30.7548 90.2744 29.3675 82.8977 31.1438 73.6073C31.3379 72.5976 31.5604 71.5935 31.811 70.5962C31.0397 70.3775 30.2739 70.1398 29.5145 69.8833C20.1487 66.7046 13.9845 61.4618 13.9845 56.2346C13.9845 51.174 19.727 46.2947 28.7184 43.1817C29.7235 42.8338 30.774 42.5069 31.8617 42.2C31.6287 41.2743 31.4194 40.3429 31.2341 39.4066C29.3709 29.9519 30.6819 22.396 35.1081 19.8515C39.7241 17.198 47.4116 20.0474 55.0811 26.8102C55.5582 27.2317 56.0273 27.6621 56.4883 28.1009C57.1767 27.4409 57.8818 26.7983 58.6029 26.1738C65.921 19.8496 73.1669 17.2039 77.5972 19.7414C82.2181 22.387 83.5712 30.4241 81.5017 40.4006C81.3724 41.0203 81.2315 41.6377 81.0792 42.2523Z" fill="url(#paint13_linear_24_270)"/>
<defs>
<linearGradient id="paint0_linear_24_270" x1="8.67825" y1="13.706" x2="32.6824" y2="107.116" gradientUnits="userSpaceOnUse">
<stop stop-color="#E18AAC"/>
<stop offset="0.384442" stop-color="#D55D8D"/>
<stop offset="0.69032" stop-color="#A55072"/>
<stop offset="1" stop-color="#70334B"/>
</linearGradient>
<linearGradient id="paint1_linear_24_270" x1="8.67825" y1="13.706" x2="32.6824" y2="107.116" gradientUnits="userSpaceOnUse">
<stop stop-color="#E18AAC"/>
<stop offset="0.384442" stop-color="#D55D8D"/>
<stop offset="0.69032" stop-color="#A55072"/>
<stop offset="1" stop-color="#70334B"/>
</linearGradient>
<linearGradient id="paint2_linear_24_270" x1="8.67825" y1="13.706" x2="32.6824" y2="107.116" gradientUnits="userSpaceOnUse">
<stop stop-color="#E18AAC"/>
<stop offset="0.384442" stop-color="#D55D8D"/>
<stop offset="0.69032" stop-color="#A55072"/>
<stop offset="1" stop-color="#70334B"/>
</linearGradient>
<linearGradient id="paint3_linear_24_270" x1="8.67825" y1="13.706" x2="32.6824" y2="107.116" gradientUnits="userSpaceOnUse">
<stop stop-color="#E18AAC"/>
<stop offset="0.384442" stop-color="#D55D8D"/>
<stop offset="0.69032" stop-color="#A55072"/>
<stop offset="1" stop-color="#70334B"/>
</linearGradient>
<linearGradient id="paint4_linear_24_270" x1="8.67825" y1="13.706" x2="32.6824" y2="107.116" gradientUnits="userSpaceOnUse">
<stop stop-color="#E18AAC"/>
<stop offset="0.384442" stop-color="#D55D8D"/>
<stop offset="0.69032" stop-color="#A55072"/>
<stop offset="1" stop-color="#70334B"/>
</linearGradient>
<linearGradient id="paint5_linear_24_270" x1="8.67825" y1="13.706" x2="32.6824" y2="107.116" gradientUnits="userSpaceOnUse">
<stop stop-color="#E18AAC"/>
<stop offset="0.384442" stop-color="#D55D8D"/>
<stop offset="0.69032" stop-color="#A55072"/>
<stop offset="1" stop-color="#70334B"/>
</linearGradient>
<linearGradient id="paint6_linear_24_270" x1="8.67825" y1="13.706" x2="32.6824" y2="107.116" gradientUnits="userSpaceOnUse">
<stop stop-color="#E18AAC"/>
<stop offset="0.384442" stop-color="#D55D8D"/>
<stop offset="0.69032" stop-color="#A55072"/>
<stop offset="1" stop-color="#70334B"/>
</linearGradient>
<linearGradient id="paint7_linear_24_270" x1="8.67825" y1="13.706" x2="32.6824" y2="107.116" gradientUnits="userSpaceOnUse">
<stop stop-color="#E18AAC"/>
<stop offset="0.384442" stop-color="#D55D8D"/>
<stop offset="0.69032" stop-color="#A55072"/>
<stop offset="1" stop-color="#70334B"/>
</linearGradient>
<linearGradient id="paint8_linear_24_270" x1="8.67825" y1="13.706" x2="32.6824" y2="107.116" gradientUnits="userSpaceOnUse">
<stop stop-color="#E18AAC"/>
<stop offset="0.384442" stop-color="#D55D8D"/>
<stop offset="0.69032" stop-color="#A55072"/>
<stop offset="1" stop-color="#70334B"/>
</linearGradient>
<linearGradient id="paint9_linear_24_270" x1="8.67825" y1="13.706" x2="32.6824" y2="107.116" gradientUnits="userSpaceOnUse">
<stop stop-color="#E18AAC"/>
<stop offset="0.384442" stop-color="#D55D8D"/>
<stop offset="0.69032" stop-color="#A55072"/>
<stop offset="1" stop-color="#70334B"/>
</linearGradient>
<linearGradient id="paint10_linear_24_270" x1="8.67825" y1="13.706" x2="32.6824" y2="107.116" gradientUnits="userSpaceOnUse">
<stop stop-color="#E18AAC"/>
<stop offset="0.384442" stop-color="#D55D8D"/>
<stop offset="0.69032" stop-color="#A55072"/>
<stop offset="1" stop-color="#70334B"/>
</linearGradient>
<linearGradient id="paint11_linear_24_270" x1="8.67825" y1="13.706" x2="32.6824" y2="107.116" gradientUnits="userSpaceOnUse">
<stop stop-color="#E18AAC"/>
<stop offset="0.384442" stop-color="#D55D8D"/>
<stop offset="0.69032" stop-color="#A55072"/>
<stop offset="1" stop-color="#70334B"/>
</linearGradient>
<linearGradient id="paint12_linear_24_270" x1="8.67825" y1="13.706" x2="32.6824" y2="107.116" gradientUnits="userSpaceOnUse">
<stop stop-color="#E18AAC"/>
<stop offset="0.384442" stop-color="#D55D8D"/>
<stop offset="0.69032" stop-color="#A55072"/>
<stop offset="1" stop-color="#70334B"/>
</linearGradient>
<linearGradient id="paint13_linear_24_270" x1="8.67825" y1="13.706" x2="32.6824" y2="107.116" gradientUnits="userSpaceOnUse">
<stop stop-color="#E18AAC"/>
<stop offset="0.384442" stop-color="#D55D8D"/>
<stop offset="0.69032" stop-color="#A55072"/>
<stop offset="1" stop-color="#70334B"/>
</linearGradient>
</defs>
</svg>
