<svg width="111" height="111" viewBox="0 0 111 111" fill="none" xmlns="http://www.w3.org/2000/svg">
<path d="M33.8059 11.9539H29.7864V23.9286H33.8062V19.9187H37.4834V23.9286H41.5032V11.9539H37.4832V15.9082H33.8059V11.9539Z" fill="url(#paint0_linear_24_266)"/>
<path d="M43.2508 15.925H46.7891L46.7899 23.9286H50.8096V15.925H54.3502V11.9539H43.2508V15.925Z" fill="url(#paint1_linear_24_266)"/>
<path d="M60.3031 11.9539H56.1116V23.9286H60.0447V17.9932L62.812 22.2509H62.8814L65.6469 17.9932V23.9286H69.6504V11.9539H65.4572L62.8814 16.1615L60.3031 11.9539Z" fill="url(#paint2_linear_24_266)"/>
<path d="M75.6719 11.9539H71.6508L71.6506 23.9286H81.3248V19.9705H75.6719V11.9539Z" fill="url(#paint3_linear_24_266)"/>
<path fill-rule="evenodd" clip-rule="evenodd" d="M87.0923 29.4052L81.3361 93.6116L55.4614 100.754L29.658 93.6215L23.9077 29.4052H87.0923ZM45.0328 58.4726L44.3099 50.4076L74.5789 50.4076L75.287 42.5317L35.6652 42.5318L37.7987 66.3485L65.2128 66.3485L64.2944 76.5629L55.4722 78.9338L55.4652 78.9363L46.6559 76.5679L46.0927 70.2865H38.1522L39.2603 82.6529L55.4635 87.1312L55.4999 87.1214V87.1199L71.6883 82.6528L73.6663 60.5875L73.8592 58.4726L45.0328 58.4726Z" fill="url(#paint4_linear_24_266)"/>
<defs>
<linearGradient id="paint0_linear_24_266" x1="24" y1="12" x2="60" y2="101" gradientUnits="userSpaceOnUse">
<stop stop-color="#E18AAC"/>
<stop offset="0.384442" stop-color="#D55D8D"/>
<stop offset="0.69032" stop-color="#A55072"/>
<stop offset="1" stop-color="#70334B"/>
</linearGradient>
<linearGradient id="paint1_linear_24_266" x1="24" y1="12" x2="60" y2="101" gradientUnits="userSpaceOnUse">
<stop stop-color="#E18AAC"/>
<stop offset="0.384442" stop-color="#D55D8D"/>
<stop offset="0.69032" stop-color="#A55072"/>
<stop offset="1" stop-color="#70334B"/>
</linearGradient>
<linearGradient id="paint2_linear_24_266" x1="24" y1="12" x2="60" y2="101" gradientUnits="userSpaceOnUse">
<stop stop-color="#E18AAC"/>
<stop offset="0.384442" stop-color="#D55D8D"/>
<stop offset="0.69032" stop-color="#A55072"/>
<stop offset="1" stop-color="#70334B"/>
</linearGradient>
<linearGradient id="paint3_linear_24_266" x1="24" y1="12" x2="60" y2="101" gradientUnits="userSpaceOnUse">
<stop stop-color="#E18AAC"/>
<stop offset="0.384442" stop-color="#D55D8D"/>
<stop offset="0.69032" stop-color="#A55072"/>
<stop offset="1" stop-color="#70334B"/>
</linearGradient>
<linearGradient id="paint4_linear_24_266" x1="24" y1="12" x2="60" y2="101" gradientUnits="userSpaceOnUse">
<stop stop-color="#E18AAC"/>
<stop offset="0.384442" stop-color="#D55D8D"/>
<stop offset="0.69032" stop-color="#A55072"/>
<stop offset="1" stop-color="#70334B"/>
</linearGradient>
</defs>
</svg>
