<svg width="150" height="46" viewBox="0 0 150 46" fill="none" xmlns="http://www.w3.org/2000/svg">
<path d="M14.4691 5.04V19H11.6691V5.04H14.4691ZM20.0355 9.64C20.3955 9.05333 20.8621 8.59333 21.4355 8.26C22.0221 7.92667 22.6888 7.76 23.4355 7.76V10.7H22.6955C21.8155 10.7 21.1488 10.9067 20.6955 11.32C20.2555 11.7333 20.0355 12.4533 20.0355 13.48V19H17.2355V7.92H20.0355V9.64ZM26.7414 6.6C26.2481 6.6 25.8347 6.44667 25.5014 6.14C25.1814 5.82 25.0214 5.42667 25.0214 4.96C25.0214 4.49333 25.1814 4.10667 25.5014 3.8C25.8347 3.48 26.2481 3.32 26.7414 3.32C27.2347 3.32 27.6414 3.48 27.9614 3.8C28.2947 4.10667 28.4614 4.49333 28.4614 4.96C28.4614 5.42667 28.2947 5.82 27.9614 6.14C27.6414 6.44667 27.2347 6.6 26.7414 6.6ZM28.1214 7.92V19H25.3214V7.92H28.1214ZM37.0278 7.76C38.3478 7.76 39.4145 8.18 40.2278 9.02C41.0411 9.84667 41.4478 11.0067 41.4478 12.5V19H38.6478V12.88C38.6478 12 38.4278 11.3267 37.9878 10.86C37.5478 10.38 36.9478 10.14 36.1878 10.14C35.4145 10.14 34.8011 10.38 34.3478 10.86C33.9078 11.3267 33.6878 12 33.6878 12.88V19H30.8878V7.92H33.6878V9.3C34.0611 8.82 34.5345 8.44667 35.1078 8.18C35.6945 7.9 36.3345 7.76 37.0278 7.76ZM43.3905 13.42C43.3905 12.3 43.6105 11.3067 44.0505 10.44C44.5038 9.57333 45.1105 8.90667 45.8705 8.44C46.6438 7.97333 47.5038 7.74 48.4505 7.74C49.2771 7.74 49.9971 7.90667 50.6105 8.24C51.2371 8.57333 51.7371 8.99333 52.1105 9.5V7.92H54.9305V19H52.1105V17.38C51.7505 17.9 51.2505 18.3333 50.6105 18.68C49.9838 19.0133 49.2571 19.18 48.4305 19.18C47.4971 19.18 46.6438 18.94 45.8705 18.46C45.1105 17.98 44.5038 17.3067 44.0505 16.44C43.6105 15.56 43.3905 14.5533 43.3905 13.42ZM52.1105 13.46C52.1105 12.78 51.9771 12.2 51.7105 11.72C51.4438 11.2267 51.0838 10.8533 50.6305 10.6C50.1771 10.3333 49.6905 10.2 49.1705 10.2C48.6505 10.2 48.1705 10.3267 47.7305 10.58C47.2905 10.8333 46.9305 11.2067 46.6505 11.7C46.3838 12.18 46.2505 12.7533 46.2505 13.42C46.2505 14.0867 46.3838 14.6733 46.6505 15.18C46.9305 15.6733 47.2905 16.0533 47.7305 16.32C48.1838 16.5867 48.6638 16.72 49.1705 16.72C49.6905 16.72 50.1771 16.5933 50.6305 16.34C51.0838 16.0733 51.4438 15.7 51.7105 15.22C51.9771 14.7267 52.1105 14.14 52.1105 13.46ZM70.3508 11.84C71.1374 11.9867 71.7841 12.38 72.2908 13.02C72.7974 13.66 73.0508 14.3933 73.0508 15.22C73.0508 15.9667 72.8641 16.6267 72.4908 17.2C72.1308 17.76 71.6041 18.2 70.9108 18.52C70.2174 18.84 69.3974 19 68.4508 19H62.4308V5.04H68.1908C69.1374 5.04 69.9508 5.19333 70.6308 5.5C71.3241 5.80667 71.8441 6.23333 72.1908 6.78C72.5508 7.32667 72.7308 7.94667 72.7308 8.64C72.7308 9.45333 72.5108 10.1333 72.0708 10.68C71.6441 11.2267 71.0708 11.6133 70.3508 11.84ZM65.2308 10.8H67.7908C68.4574 10.8 68.9708 10.6533 69.3308 10.36C69.6908 10.0533 69.8708 9.62 69.8708 9.06C69.8708 8.5 69.6908 8.06667 69.3308 7.76C68.9708 7.45333 68.4574 7.3 67.7908 7.3H65.2308V10.8ZM68.0508 16.72C68.7308 16.72 69.2574 16.56 69.6308 16.24C70.0174 15.92 70.2108 15.4667 70.2108 14.88C70.2108 14.28 70.0108 13.8133 69.6108 13.48C69.2108 13.1333 68.6708 12.96 67.9908 12.96H65.2308V16.72H68.0508ZM74.5623 13.42C74.5623 12.3 74.7823 11.3067 75.2223 10.44C75.6757 9.57333 76.2823 8.90667 77.0423 8.44C77.8157 7.97333 78.6757 7.74 79.6223 7.74C80.449 7.74 81.169 7.90667 81.7823 8.24C82.409 8.57333 82.909 8.99333 83.2823 9.5V7.92H86.1023V19H83.2823V17.38C82.9223 17.9 82.4223 18.3333 81.7823 18.68C81.1557 19.0133 80.429 19.18 79.6023 19.18C78.669 19.18 77.8157 18.94 77.0423 18.46C76.2823 17.98 75.6757 17.3067 75.2223 16.44C74.7823 15.56 74.5623 14.5533 74.5623 13.42ZM83.2823 13.46C83.2823 12.78 83.149 12.2 82.8823 11.72C82.6157 11.2267 82.2557 10.8533 81.8023 10.6C81.349 10.3333 80.8623 10.2 80.3423 10.2C79.8223 10.2 79.3423 10.3267 78.9023 10.58C78.4623 10.8333 78.1023 11.2067 77.8223 11.7C77.5557 12.18 77.4223 12.7533 77.4223 13.42C77.4223 14.0867 77.5557 14.6733 77.8223 15.18C78.1023 15.6733 78.4623 16.0533 78.9023 16.32C79.3557 16.5867 79.8357 16.72 80.3423 16.72C80.8623 16.72 81.349 16.5933 81.8023 16.34C82.2557 16.0733 82.6157 15.7 82.8823 15.22C83.149 14.7267 83.2823 14.14 83.2823 13.46ZM91.637 4.2V19H88.837V4.2H91.637ZM93.6834 13.42C93.6834 12.3 93.9034 11.3067 94.3434 10.44C94.7968 9.57333 95.4034 8.90667 96.1634 8.44C96.9368 7.97333 97.7968 7.74 98.7434 7.74C99.5701 7.74 100.29 7.90667 100.903 8.24C101.53 8.57333 102.03 8.99333 102.403 9.5V7.92H105.223V19H102.403V17.38C102.043 17.9 101.543 18.3333 100.903 18.68C100.277 19.0133 99.5501 19.18 98.7234 19.18C97.7901 19.18 96.9368 18.94 96.1634 18.46C95.4034 17.98 94.7968 17.3067 94.3434 16.44C93.9034 15.56 93.6834 14.5533 93.6834 13.42ZM102.403 13.46C102.403 12.78 102.27 12.2 102.003 11.72C101.737 11.2267 101.377 10.8533 100.923 10.6C100.47 10.3333 99.9834 10.2 99.4634 10.2C98.9434 10.2 98.4634 10.3267 98.0234 10.58C97.5834 10.8333 97.2234 11.2067 96.9434 11.7C96.6768 12.18 96.5434 12.7533 96.5434 13.42C96.5434 14.0867 96.6768 14.6733 96.9434 15.18C97.2234 15.6733 97.5834 16.0533 98.0234 16.32C98.4768 16.5867 98.9568 16.72 99.4634 16.72C99.9834 16.72 100.47 16.5933 100.923 16.34C101.377 16.0733 101.737 15.7 102.003 15.22C102.27 14.7267 102.403 14.14 102.403 13.46ZM114.098 7.76C115.418 7.76 116.485 8.18 117.298 9.02C118.111 9.84667 118.518 11.0067 118.518 12.5V19H115.718V12.88C115.718 12 115.498 11.3267 115.058 10.86C114.618 10.38 114.018 10.14 113.258 10.14C112.485 10.14 111.871 10.38 111.418 10.86C110.978 11.3267 110.758 12 110.758 12.88V19H107.958V7.92H110.758V9.3C111.131 8.82 111.605 8.44667 112.178 8.18C112.765 7.9 113.405 7.76 114.098 7.76ZM131.481 13.22C131.481 13.62 131.454 13.98 131.401 14.3H123.301C123.367 15.1 123.647 15.7267 124.141 16.18C124.634 16.6333 125.241 16.86 125.961 16.86C127.001 16.86 127.741 16.4133 128.181 15.52H131.201C130.881 16.5867 130.267 17.4667 129.361 18.16C128.454 18.84 127.341 19.18 126.021 19.18C124.954 19.18 123.994 18.9467 123.141 18.48C122.301 18 121.641 17.3267 121.161 16.46C120.694 15.5933 120.461 14.5933 120.461 13.46C120.461 12.3133 120.694 11.3067 121.161 10.44C121.627 9.57333 122.281 8.90667 123.121 8.44C123.961 7.97333 124.927 7.74 126.021 7.74C127.074 7.74 128.014 7.96667 128.841 8.42C129.681 8.87333 130.327 9.52 130.781 10.36C131.247 11.1867 131.481 12.14 131.481 13.22ZM128.581 12.42C128.567 11.7 128.307 11.1267 127.801 10.7C127.294 10.26 126.674 10.04 125.941 10.04C125.247 10.04 124.661 10.2533 124.181 10.68C123.714 11.0933 123.427 11.6733 123.321 12.42H128.581ZM136.325 4.2V19H133.525V4.2H136.325Z" fill="white"/>
<path d="M3.49801 40.206L0.235012 37.19L3.49801 34.174H4.65501L1.37901 37.19L4.65501 40.206H3.49801Z" fill="#EC95B7"/>
<path d="M11.8168 32.913V33.667H7.81279V37.06H11.1928V37.814H7.81279V42H6.90279V32.913H11.8168ZM19.4629 34.902V42H18.5529V40.752C18.3449 41.194 18.0243 41.532 17.5909 41.766C17.1576 42 16.6723 42.117 16.1349 42.117C15.2856 42.117 14.5923 41.857 14.0549 41.337C13.5176 40.8083 13.2489 40.0457 13.2489 39.049V34.902H14.1459V38.945C14.1459 39.7163 14.3366 40.3057 14.7179 40.713C15.1079 41.1203 15.6366 41.324 16.3039 41.324C16.9886 41.324 17.5346 41.1073 17.9419 40.674C18.3493 40.2407 18.5529 39.6037 18.5529 38.763V34.902H19.4629ZM22.4505 32.38V42H21.5405V32.38H22.4505ZM25.4212 32.38V42H24.5112V32.38H25.4212ZM33.8053 42.091C33.2073 42.091 32.6786 41.987 32.2193 41.779C31.7686 41.571 31.4133 41.2807 31.1533 40.908C30.8933 40.5353 30.7546 40.1193 30.7373 39.66H31.6993C31.7426 40.102 31.9376 40.492 32.2843 40.83C32.6309 41.1593 33.1379 41.324 33.8053 41.324C34.4206 41.324 34.9059 41.168 35.2613 40.856C35.6253 40.5353 35.8073 40.1323 35.8073 39.647C35.8073 39.257 35.7076 38.945 35.5083 38.711C35.3089 38.4683 35.0619 38.2907 34.7673 38.178C34.4726 38.0567 34.0653 37.9267 33.5453 37.788C32.9386 37.6233 32.4576 37.463 32.1023 37.307C31.7469 37.151 31.4436 36.9083 31.1923 36.579C30.9409 36.2497 30.8153 35.8033 30.8153 35.24C30.8153 34.772 30.9366 34.356 31.1793 33.992C31.4219 33.6193 31.7643 33.329 32.2063 33.121C32.6483 32.913 33.1553 32.809 33.7273 32.809C34.5679 32.809 35.2439 33.017 35.7553 33.433C36.2753 33.8403 36.5743 34.369 36.6523 35.019H35.6643C35.6036 34.6463 35.3999 34.317 35.0533 34.031C34.7066 33.7363 34.2386 33.589 33.6493 33.589C33.1033 33.589 32.6483 33.7363 32.2843 34.031C31.9203 34.317 31.7383 34.7113 31.7383 35.214C31.7383 35.5953 31.8379 35.903 32.0373 36.137C32.2366 36.371 32.4836 36.5487 32.7783 36.67C33.0816 36.7913 33.4889 36.9213 34.0003 37.06C34.5896 37.2247 35.0663 37.3893 35.4303 37.554C35.7943 37.71 36.1019 37.9527 36.3533 38.282C36.6046 38.6113 36.7303 39.0533 36.7303 39.608C36.7303 40.0327 36.6176 40.4357 36.3923 40.817C36.1669 41.1983 35.8333 41.506 35.3913 41.74C34.9493 41.974 34.4206 42.091 33.8053 42.091ZM39.6717 35.669V40.076C39.6717 40.5093 39.7541 40.8083 39.9187 40.973C40.0834 41.1377 40.3737 41.22 40.7897 41.22H41.6217V42H40.6467C40.0054 42 39.5287 41.8527 39.2167 41.558C38.9047 41.2547 38.7487 40.7607 38.7487 40.076V35.669H37.7607V34.902H38.7487V33.121H39.6717V34.902H41.6217V35.669H39.6717ZM42.7065 38.438C42.7065 37.71 42.8495 37.073 43.1355 36.527C43.4302 35.9723 43.8332 35.5477 44.3445 35.253C44.8645 34.9497 45.4495 34.798 46.0995 34.798C46.7755 34.798 47.3562 34.954 47.8415 35.266C48.3355 35.578 48.6909 35.9767 48.9075 36.462V34.902H49.8175V42H48.9075V40.427C48.6822 40.9123 48.3225 41.3153 47.8285 41.636C47.3432 41.948 46.7625 42.104 46.0865 42.104C45.4452 42.104 44.8645 41.9523 44.3445 41.649C43.8332 41.3457 43.4302 40.9167 43.1355 40.362C42.8495 39.8073 42.7065 39.166 42.7065 38.438ZM48.9075 38.451C48.9075 37.879 48.7905 37.3763 48.5565 36.943C48.3225 36.5097 48.0019 36.176 47.5945 35.942C47.1959 35.708 46.7539 35.591 46.2685 35.591C45.7659 35.591 45.3152 35.7037 44.9165 35.929C44.5179 36.1543 44.2015 36.4837 43.9675 36.917C43.7422 37.3417 43.6295 37.8487 43.6295 38.438C43.6295 39.0187 43.7422 39.53 43.9675 39.972C44.2015 40.4053 44.5179 40.739 44.9165 40.973C45.3152 41.1983 45.7659 41.311 46.2685 41.311C46.7539 41.311 47.1959 41.194 47.5945 40.96C48.0019 40.726 48.3225 40.3923 48.5565 39.959C48.7905 39.5257 48.9075 39.023 48.9075 38.451ZM51.479 38.451C51.479 37.7143 51.6263 37.073 51.921 36.527C52.2156 35.9723 52.623 35.5477 53.143 35.253C53.663 34.9497 54.2566 34.798 54.924 34.798C55.7993 34.798 56.5186 35.0147 57.082 35.448C57.654 35.8813 58.0223 36.4707 58.187 37.216H57.212C57.0906 36.7047 56.8263 36.306 56.419 36.02C56.0203 35.7253 55.522 35.578 54.924 35.578C54.4473 35.578 54.0183 35.6863 53.637 35.903C53.2556 36.1197 52.9523 36.4447 52.727 36.878C52.5103 37.3027 52.402 37.827 52.402 38.451C52.402 39.075 52.5103 39.6037 52.727 40.037C52.9523 40.4703 53.2556 40.7953 53.637 41.012C54.0183 41.2287 54.4473 41.337 54.924 41.337C55.522 41.337 56.0203 41.194 56.419 40.908C56.8263 40.6133 57.0906 40.206 57.212 39.686H58.187C58.0223 40.414 57.654 40.999 57.082 41.441C56.51 41.883 55.7906 42.104 54.924 42.104C54.2566 42.104 53.663 41.9567 53.143 41.662C52.623 41.3587 52.2156 40.934 51.921 40.388C51.6263 39.8333 51.479 39.1877 51.479 38.451ZM63.7026 42L60.7776 38.815V42H59.8676V32.38H60.7776V38.074L63.6376 34.902H64.9116L61.5446 38.438L64.9376 42H63.7026ZM72.3721 32.913C73.3774 32.913 74.2398 33.095 74.9591 33.459C75.6784 33.823 76.2288 34.3473 76.6101 35.032C76.9914 35.7167 77.1821 36.5313 77.1821 37.476C77.1821 38.412 76.9914 39.2223 76.6101 39.907C76.2288 40.583 75.6784 41.103 74.9591 41.467C74.2398 41.8223 73.3774 42 72.3721 42H69.6811V32.913H72.3721ZM72.3721 41.246C73.6374 41.246 74.5994 40.9167 75.2581 40.258C75.9254 39.5907 76.2591 38.6633 76.2591 37.476C76.2591 36.28 75.9254 35.3483 75.2581 34.681C74.5994 34.005 73.6374 33.667 72.3721 33.667H70.5911V41.246H72.3721ZM85.2818 38.087C85.2818 38.399 85.2732 38.6373 85.2558 38.802H79.3668C79.3928 39.3393 79.5228 39.7987 79.7568 40.18C79.9908 40.5613 80.2985 40.8517 80.6798 41.051C81.0612 41.2417 81.4772 41.337 81.9278 41.337C82.5172 41.337 83.0112 41.194 83.4098 40.908C83.8172 40.622 84.0858 40.2363 84.2158 39.751H85.1778C85.0045 40.4443 84.6318 41.012 84.0598 41.454C83.4965 41.8873 82.7858 42.104 81.9278 42.104C81.2605 42.104 80.6625 41.9567 80.1338 41.662C79.6052 41.3587 79.1892 40.934 78.8858 40.388C78.5912 39.8333 78.4438 39.1877 78.4438 38.451C78.4438 37.7143 78.5912 37.0687 78.8858 36.514C79.1805 35.9593 79.5922 35.5347 80.1208 35.24C80.6495 34.9453 81.2518 34.798 81.9278 34.798C82.6038 34.798 83.1932 34.9453 83.6958 35.24C84.2072 35.5347 84.5972 35.9333 84.8658 36.436C85.1432 36.93 85.2818 37.4803 85.2818 38.087ZM84.3588 38.061C84.3675 37.5323 84.2592 37.0817 84.0338 36.709C83.8172 36.3363 83.5182 36.0547 83.1368 35.864C82.7555 35.6733 82.3395 35.578 81.8888 35.578C81.2128 35.578 80.6365 35.7947 80.1598 36.228C79.6832 36.6613 79.4188 37.2723 79.3668 38.061H84.3588ZM89.4687 41.116L91.8607 34.902H92.8227L89.9757 42H88.9487L86.1017 34.902H87.0767L89.4687 41.116ZM100.478 38.087C100.478 38.399 100.469 38.6373 100.452 38.802H94.5631C94.5891 39.3393 94.7191 39.7987 94.9531 40.18C95.1871 40.5613 95.4948 40.8517 95.8761 41.051C96.2574 41.2417 96.6734 41.337 97.1241 41.337C97.7134 41.337 98.2074 41.194 98.6061 40.908C99.0134 40.622 99.2821 40.2363 99.4121 39.751H100.374C100.201 40.4443 99.8281 41.012 99.2561 41.454C98.6928 41.8873 97.9821 42.104 97.1241 42.104C96.4568 42.104 95.8588 41.9567 95.3301 41.662C94.8014 41.3587 94.3854 40.934 94.0821 40.388C93.7874 39.8333 93.6401 39.1877 93.6401 38.451C93.6401 37.7143 93.7874 37.0687 94.0821 36.514C94.3768 35.9593 94.7884 35.5347 95.3171 35.24C95.8458 34.9453 96.4481 34.798 97.1241 34.798C97.8001 34.798 98.3894 34.9453 98.8921 35.24C99.4034 35.5347 99.7934 35.9333 100.062 36.436C100.339 36.93 100.478 37.4803 100.478 38.087ZM99.5551 38.061C99.5638 37.5323 99.4554 37.0817 99.2301 36.709C99.0134 36.3363 98.7144 36.0547 98.3331 35.864C97.9518 35.6733 97.5358 35.578 97.0851 35.578C96.4091 35.578 95.8328 35.7947 95.3561 36.228C94.8794 36.6613 94.6151 37.2723 94.5631 38.061H99.5551ZM103.053 32.38V42H102.143V32.38H103.053ZM108.221 42.104C107.553 42.104 106.951 41.9567 106.414 41.662C105.885 41.3587 105.465 40.934 105.153 40.388C104.849 39.8333 104.698 39.1877 104.698 38.451C104.698 37.7143 104.854 37.073 105.166 36.527C105.478 35.9723 105.902 35.5477 106.44 35.253C106.977 34.9497 107.579 34.798 108.247 34.798C108.914 34.798 109.516 34.9497 110.054 35.253C110.6 35.5477 111.024 35.9723 111.328 36.527C111.64 37.073 111.796 37.7143 111.796 38.451C111.796 39.179 111.64 39.8203 111.328 40.375C111.016 40.9297 110.587 41.3587 110.041 41.662C109.495 41.9567 108.888 42.104 108.221 42.104ZM108.221 41.311C108.689 41.311 109.122 41.207 109.521 40.999C109.919 40.7823 110.24 40.4617 110.483 40.037C110.734 39.6037 110.86 39.075 110.86 38.451C110.86 37.827 110.738 37.3027 110.496 36.878C110.253 36.4447 109.932 36.124 109.534 35.916C109.135 35.6993 108.702 35.591 108.234 35.591C107.766 35.591 107.332 35.6993 106.934 35.916C106.535 36.124 106.214 36.4447 105.972 36.878C105.738 37.3027 105.621 37.827 105.621 38.451C105.621 39.075 105.738 39.6037 105.972 40.037C106.214 40.4617 106.531 40.7823 106.921 40.999C107.319 41.207 107.753 41.311 108.221 41.311ZM114.352 36.462C114.577 35.9853 114.932 35.591 115.418 35.279C115.912 34.9583 116.497 34.798 117.173 34.798C117.814 34.798 118.39 34.9497 118.902 35.253C119.422 35.5477 119.825 35.9723 120.111 36.527C120.405 37.073 120.553 37.71 120.553 38.438C120.553 39.166 120.405 39.8073 120.111 40.362C119.825 40.9167 119.422 41.3457 118.902 41.649C118.39 41.9523 117.814 42.104 117.173 42.104C116.505 42.104 115.925 41.948 115.431 41.636C114.937 41.3153 114.577 40.9167 114.352 40.44V45.354H113.455V34.902H114.352V36.462ZM119.63 38.438C119.63 37.8487 119.513 37.3417 119.279 36.917C119.053 36.4837 118.741 36.1543 118.343 35.929C117.944 35.7037 117.493 35.591 116.991 35.591C116.505 35.591 116.059 35.708 115.652 35.942C115.253 36.176 114.937 36.5097 114.703 36.943C114.469 37.3763 114.352 37.879 114.352 38.451C114.352 39.023 114.469 39.5257 114.703 39.959C114.937 40.3923 115.253 40.726 115.652 40.96C116.059 41.194 116.505 41.311 116.991 41.311C117.493 41.311 117.944 41.1983 118.343 40.973C118.741 40.739 119.053 40.4053 119.279 39.972C119.513 39.53 119.63 39.0187 119.63 38.438ZM128.649 38.087C128.649 38.399 128.64 38.6373 128.623 38.802H122.734C122.76 39.3393 122.89 39.7987 123.124 40.18C123.358 40.5613 123.666 40.8517 124.047 41.051C124.428 41.2417 124.844 41.337 125.295 41.337C125.884 41.337 126.378 41.194 126.777 40.908C127.184 40.622 127.453 40.2363 127.583 39.751H128.545C128.372 40.4443 127.999 41.012 127.427 41.454C126.864 41.8873 126.153 42.104 125.295 42.104C124.628 42.104 124.03 41.9567 123.501 41.662C122.972 41.3587 122.556 40.934 122.253 40.388C121.958 39.8333 121.811 39.1877 121.811 38.451C121.811 37.7143 121.958 37.0687 122.253 36.514C122.548 35.9593 122.959 35.5347 123.488 35.24C124.017 34.9453 124.619 34.798 125.295 34.798C125.971 34.798 126.56 34.9453 127.063 35.24C127.574 35.5347 127.964 35.9333 128.233 36.436C128.51 36.93 128.649 37.4803 128.649 38.087ZM127.726 38.061C127.735 37.5323 127.626 37.0817 127.401 36.709C127.184 36.3363 126.885 36.0547 126.504 35.864C126.123 35.6733 125.707 35.578 125.256 35.578C124.58 35.578 124.004 35.7947 123.527 36.228C123.05 36.6613 122.786 37.2723 122.734 38.061H127.726ZM131.224 36.163C131.423 35.721 131.727 35.3787 132.134 35.136C132.55 34.8933 133.057 34.772 133.655 34.772V35.721H133.408C132.749 35.721 132.221 35.8987 131.822 36.254C131.423 36.6093 131.224 37.203 131.224 38.035V42H130.314V34.902H131.224V36.163Z" fill="white"/>
<path d="M142.634 29.78L139.046 44.158H138.149L141.711 29.78H142.634ZM144.304 34.174H145.461L148.724 37.19L145.461 40.206H144.304L147.58 37.19L144.304 34.174Z" fill="#EC95B7"/>
</svg>
